<svg width="2180" height="560" viewBox="0 0 2180 560" fill="none"
    xmlns="http://www.w3.org/2000/svg">
    <style>
    .black { fill: #1E1E24; /* regimed-black */ }
    .red { fill: #E63946;/* regimed-red-600 */ }
    @media (prefers-color-scheme: dark) {
        .black { fill: white; }
        .red { fill: #EE7C85; /* regimed-red-400 */ }
    }
    </style>
    <path fill-rule="evenodd" clip-rule="evenodd" d="M283.905 517.838C280.736 519.621 276.814 519.431 273.836 517.353C268.284 513.5 261.489 508.779 261.489 508.779C254.153 503.262 247.081 497.754 240.242 492.294C238.568 490.955 237.848 488.735 238.445 486.675C242.525 472.447 246.542 455.437 249.369 436.304C254.652 400.595 255.024 364.273 248.808 326.228C248.702 325.628 248.948 325.023 249.423 324.666C249.928 324.313 250.574 324.269 251.125 324.555C266.557 332.649 284.149 333.434 302.163 324.474C302.725 324.194 303.398 324.269 303.859 324.664C304.349 325.063 304.571 325.706 304.384 326.309C295.726 357.756 291.24 388.582 289.539 419.295C287.385 458.389 290.362 491.175 292.656 509.105C292.937 511.252 291.901 513.362 290.005 514.422C288.229 515.41 286.096 516.62 283.905 517.838ZM212.091 462.935C211.806 464.034 210.998 464.915 209.908 465.258C208.847 465.604 207.65 465.358 206.785 464.615C-149.386 155.052 154.759 -78.0989 276.956 98.3194C282.375 106.04 293.172 108.298 301.18 103.177C496.86 -17.8893 681.399 213.869 404.943 437.691C392.739 447.712 379.662 457.423 365.408 467.405C353.351 475.896 341.989 483.276 328.999 491.527C328.643 491.737 328.139 492.064 327.546 492.437C326.537 493.074 325.276 493.14 324.202 492.613C323.128 492.089 322.416 491.044 322.292 489.858C320.968 474.844 319.922 456.017 320.519 433.991C321.855 384.037 331.422 344.909 333.373 336.347C352.607 251.303 390.763 190.991 411.519 165.787C414.188 162.566 414.548 160.624 414.619 158.42C414.718 156.292 413.533 153.907 412.094 152.553C410.655 151.198 408.037 150.24 406.015 150.292C403.992 150.347 401.712 151.59 399.93 152.877C398.028 154.255 396.852 156.006 394.518 158.56C361.839 194.428 340.165 236.996 336.391 244.386C333.377 250.335 330.51 256.251 327.819 262.135C304.177 312.641 248.982 307.94 232.344 261.809C232.261 261.559 232.148 261.316 232.065 261.086C231.843 260.437 231.621 259.789 231.399 259.137C213.082 207.349 195.155 181.127 184.892 167.82C182.977 165.311 180.43 163.636 178.273 163.061C176.204 162.509 173.582 163.25 171.978 164.38C170.375 165.509 169.03 166.866 168.563 169.837C168.229 172.019 168.946 174.324 169.816 176.35C171.163 179.426 172.574 180.707 176.619 188.287C207.246 245.933 215.997 306.17 216.129 306.937C221.768 339.885 222.091 368.998 222.092 376.56C222.074 408.146 218.486 436.458 212.091 462.935ZM326.816 172.095C329.647 168.063 323.753 163.752 320.303 167.984C318.294 170.359 315.991 172.832 313.577 174.995C311.162 177.158 308.748 179.321 306.14 180.859C304.365 181.777 302.183 182.488 300.296 183.094C296.044 184.826 290.413 186.649 290.779 192.058C291.256 194.66 293.539 196.345 295.73 196.674C298.216 196.903 300.273 196.582 302.69 195.799C304.842 195.105 306.94 194.166 307.938 194.098C308.992 194.106 309.274 194.712 309.467 195.337C309.852 196.654 310.553 199.817 310.218 201.996C309.66 206.67 306.94 211.013 303.887 214.417C302.416 216.276 300.538 217.922 298.632 219.57C296.968 220.804 295.091 222.449 292.991 223.47C254.164 242.266 237.028 180.788 276.81 170.316C284.114 168.299 291.794 169.612 298.206 174.449C301.412 176.866 307.015 176.463 308.189 173.286C313.568 158.591 284.276 150.627 273.117 153.546C212.415 165.607 213.123 255.79 283.642 255.791C319.385 255.792 344.867 208.685 320.373 184.245C319.338 183.212 319.282 181.535 320.269 180.452C322.634 177.84 324.71 174.967 326.816 172.095Z" class="red" />
    <path d="M2028.85 420.86C2010.71 420.86 1995.11 416.643 1981.19 407.786C1967.69 398.929 1957.15 386.699 1949.56 370.672C1941.97 354.224 1938.17 335.246 1938.17 313.315C1938.17 290.962 1941.97 271.984 1949.56 256.379C1957.15 240.353 1967.69 228.122 1981.19 219.266C1995.11 210.409 2010.71 206.191 2028.85 206.191C2046.14 206.191 2060.9 210.409 2073.55 218.844C2086.62 227.279 2095.06 238.244 2099.7 252.162H2095.06V142.508C2095.06 133.651 2097.17 127.325 2101.81 122.686C2106.45 118.046 2112.77 115.938 2121.21 115.938C2129.64 115.938 2135.97 118.046 2140.61 122.686C2145.25 127.325 2147.78 133.651 2147.78 142.508V393.025C2147.78 401.882 2145.67 408.63 2141.03 413.269C2136.39 417.908 2130.06 420.017 2121.63 420.017C2113.19 420.017 2106.87 417.908 2102.23 413.269C2097.59 408.63 2095.48 401.882 2095.48 393.025V360.129L2100.12 372.781C2095.9 387.542 2087.47 398.929 2074.39 407.786C2061.32 416.643 2046.14 420.86 2028.85 420.86ZM2043.61 380.794C2054.15 380.794 2063.01 378.264 2071.02 373.203C2079.03 368.142 2084.94 360.551 2089.15 350.85C2093.79 340.728 2095.9 328.076 2095.9 313.315C2095.9 290.962 2091.26 274.093 2081.56 263.127C2071.86 251.74 2059.21 246.257 2043.61 246.257C2033.06 246.257 2024.21 248.788 2016.19 253.849C2008.18 258.488 2002.28 266.079 1997.64 276.201C1993.42 285.901 1991.31 298.554 1991.31 313.315C1991.31 335.668 1995.95 352.537 2005.65 363.925C2015.35 375.312 2028 380.794 2043.61 380.794Z" class="red" />
    <path d="M1822.75 420.86C1799.56 420.86 1779.31 416.643 1762.44 407.786C1745.57 398.93 1732.5 386.699 1723.22 370.673C1714.36 354.646 1709.72 335.668 1709.72 313.737C1709.72 292.228 1713.94 273.671 1722.8 257.645C1731.66 241.618 1743.89 228.966 1759.49 220.109C1775.1 210.831 1793.23 206.192 1813.05 206.192C1827.81 206.192 1840.89 208.722 1852.27 213.361C1864.08 218.001 1874.21 225.17 1882.22 234.027C1890.65 242.884 1896.98 253.849 1901.2 266.923C1905.84 279.576 1907.94 293.915 1907.94 309.941C1907.94 315.002 1906.26 318.798 1902.46 321.75C1899.09 324.281 1894.03 325.546 1887.7 325.546H1752.32V295.18H1870.83L1864.08 301.506C1864.08 288.432 1861.97 277.889 1858.18 269.032C1854.38 260.175 1848.9 253.849 1841.73 249.21C1834.56 244.571 1825.7 242.04 1815.16 242.04C1803.35 242.04 1793.23 244.992 1784.8 250.475C1776.78 255.958 1770.46 263.549 1765.82 273.671C1761.6 283.371 1759.49 295.18 1759.49 309.098V312.05C1759.49 335.246 1764.97 352.538 1775.52 363.925C1786.48 375.312 1802.51 380.795 1823.6 380.795C1830.77 380.795 1839.2 379.951 1848.06 378.264C1857.34 376.155 1866.19 373.203 1874.21 368.564C1880.11 365.19 1885.17 363.925 1889.81 364.346C1894.45 364.768 1897.82 366.033 1900.35 368.986C1903.31 371.938 1904.99 375.312 1905.41 379.529C1905.84 383.325 1904.99 387.543 1902.88 391.76C1900.78 395.977 1897.4 399.773 1892.34 402.725C1882.64 409.052 1871.25 413.691 1858.18 416.643C1845.53 419.595 1833.72 420.86 1822.75 420.86Z" class="red" />
    <path d="M1386.46 420.017C1378.02 420.017 1371.7 417.908 1367.06 413.269C1362.42 408.63 1360.31 401.882 1360.31 393.025V233.605C1360.31 224.748 1362.42 218.422 1367.06 213.783C1371.7 209.144 1378.02 207.035 1386.04 207.035C1394.05 207.035 1400.38 209.144 1405.02 213.783C1409.65 218.422 1411.76 224.748 1411.76 233.605V264.393L1407.12 251.74C1412.61 237.823 1421.46 226.435 1433.27 218.422C1445.08 210.409 1459 206.192 1475.45 206.192C1491.9 206.192 1505.81 209.987 1516.36 218.001C1526.9 226.014 1534.49 237.823 1538.71 254.271H1532.8C1538.29 239.51 1547.57 227.701 1560.64 219.266C1573.71 210.409 1588.47 206.192 1605.34 206.192C1620.95 206.192 1634.02 209.144 1644.15 215.47C1654.69 221.796 1662.28 231.075 1667.34 243.727C1672.4 255.958 1674.93 271.984 1674.93 290.963V393.025C1674.93 401.882 1672.4 408.63 1667.76 413.269C1663.12 417.908 1656.8 420.017 1648.36 420.017C1639.93 420.017 1633.6 417.908 1628.96 413.269C1624.32 408.63 1622.21 401.882 1622.21 393.025V293.071C1622.21 277.467 1619.68 265.658 1614.2 258.488C1609.14 251.319 1600.28 247.523 1588.05 247.523C1574.14 247.523 1563.59 252.584 1555.58 262.284C1547.57 271.984 1543.77 285.058 1543.77 302.35V393.025C1543.77 401.882 1541.66 408.63 1537.02 413.269C1532.38 417.908 1526.06 420.017 1517.62 420.017C1509.19 420.017 1502.44 417.908 1497.8 413.269C1493.16 408.63 1491.05 401.882 1491.05 393.025V293.071C1491.05 277.467 1488.52 265.658 1483.04 258.488C1477.98 251.319 1469.54 247.523 1457.31 247.523C1443.39 247.523 1432.85 252.584 1424.84 262.284C1416.82 271.984 1413.03 285.058 1413.03 302.35V393.025C1413.03 411.16 1404.17 420.017 1386.46 420.017Z" class="red" />
    <path d="M1279.92 419.596C1271.48 419.596 1265.15 417.066 1260.52 412.005C1255.88 406.944 1253.77 399.774 1253.77 390.917V236.136C1253.77 226.858 1255.88 219.688 1260.52 215.049C1265.15 209.988 1271.48 207.458 1279.92 207.458C1288.35 207.458 1294.68 209.988 1299.32 215.049C1303.96 219.688 1306.49 226.858 1306.49 236.136V390.917C1306.49 399.774 1304.38 406.944 1299.74 412.005C1295.1 417.066 1288.77 419.596 1279.92 419.596ZM1279.92 168.235C1270.22 168.235 1262.2 165.705 1256.72 161.066C1251.24 156.005 1248.71 149.257 1248.71 140.4C1248.71 131.543 1251.24 124.374 1256.72 119.734C1262.2 115.095 1270.22 112.565 1279.92 112.565C1290.04 112.565 1297.63 115.095 1303.11 119.734C1308.59 124.374 1311.13 131.543 1311.13 140.4C1311.13 149.257 1308.59 156.005 1303.11 161.066C1297.63 165.705 1290.04 168.235 1279.92 168.235Z" class="black" />
    <path d="M1095.12 496.775C1079.94 496.775 1065.18 495.51 1050.84 492.557C1036.92 489.605 1023.84 485.388 1012.46 479.483C1006.97 476.531 1003.6 473.157 1001.49 469.361C999.805 465.566 999.383 461.348 999.805 457.131C1000.65 453.335 1002.34 449.539 1004.87 446.587C1007.82 443.635 1011.19 441.526 1014.99 440.261C1018.78 438.996 1023 439.839 1027.22 441.948C1039.45 448.274 1051.26 452.07 1062.22 453.757C1073.61 455.865 1082.89 456.709 1090.9 456.709C1109.88 456.709 1123.8 452.07 1133.08 442.791C1142.78 433.935 1147.42 420.439 1147.42 402.304V364.346H1151.21C1146.99 378.686 1138.14 390.073 1124.64 398.93C1111.57 407.365 1096.38 411.582 1079.51 411.582C1060.96 411.582 1044.93 407.365 1031.01 398.93C1017.1 390.073 1006.55 378.264 998.961 362.659C991.37 347.055 987.574 329.342 987.574 308.676C987.574 293.071 989.683 279.154 993.9 266.923C998.539 254.271 1004.44 243.305 1012.46 234.449C1020.47 225.592 1030.17 218.422 1041.56 213.783C1052.94 208.722 1065.6 206.192 1079.51 206.192C1096.81 206.192 1111.99 210.409 1125.06 219.266C1138.14 227.701 1146.99 239.088 1150.79 253.005L1146.57 263.549V233.605C1146.57 224.748 1148.68 218.422 1153.32 213.783C1157.96 209.144 1164.71 207.035 1172.72 207.035C1181.16 207.035 1187.48 209.144 1192.12 213.783C1196.76 218.422 1198.87 224.748 1198.87 233.605V395.977C1198.87 429.295 1190.01 454.6 1172.3 471.47C1154.59 488.34 1128.86 496.775 1095.12 496.775ZM1093.85 371.516C1104.82 371.516 1114.1 368.986 1122.11 363.925C1130.12 358.864 1136.03 351.694 1140.25 342.416C1144.89 332.716 1146.99 321.75 1146.99 308.676C1146.99 289.276 1142.35 274.093 1132.65 263.127C1122.95 251.74 1110.3 246.258 1093.85 246.258C1082.89 246.258 1073.61 248.788 1065.6 253.849C1057.58 258.91 1051.68 266.08 1047.04 275.358C1042.82 284.636 1040.71 295.602 1040.71 308.676C1040.71 328.076 1045.35 343.259 1055.05 354.646C1064.75 366.033 1077.41 371.516 1093.85 371.516Z" class="black" />
    <path d="M872.157 420.86C848.961 420.86 828.717 416.643 811.847 407.786C794.977 398.93 781.903 386.699 772.625 370.673C763.768 354.646 759.129 335.668 759.129 313.737C759.129 292.228 763.346 273.671 772.203 257.645C781.06 241.618 793.29 228.966 808.895 220.109C824.499 210.831 842.634 206.192 862.456 206.192C877.218 206.192 890.292 208.722 901.679 213.361C913.488 218.001 923.61 225.17 931.623 234.027C940.058 242.884 946.384 253.849 950.601 266.923C955.24 279.576 957.349 293.915 957.349 309.941C957.349 315.002 955.662 318.798 951.867 321.75C948.493 324.281 943.432 325.546 937.105 325.546H801.725V295.18H920.236L913.488 301.506C913.488 288.432 911.379 277.889 907.583 269.032C903.788 260.175 898.305 253.849 891.135 249.21C883.965 244.571 875.109 242.04 864.565 242.04C852.756 242.04 842.634 244.992 834.199 250.475C826.186 255.958 819.86 263.549 815.221 273.671C811.003 283.371 808.895 295.18 808.895 309.098V312.05C808.895 335.246 814.377 352.538 824.921 363.925C835.886 375.312 851.913 380.795 873 380.795C880.17 380.795 888.605 379.951 897.461 378.264C906.74 376.155 915.596 373.203 923.61 368.564C929.514 365.19 934.575 363.925 939.214 364.346C943.853 364.768 947.227 366.033 949.758 368.986C952.71 371.938 954.397 375.312 954.819 379.529C955.24 383.325 954.397 387.543 952.288 391.76C950.18 395.977 946.806 399.773 941.745 402.725C932.044 409.052 920.657 413.691 907.583 416.643C894.931 419.595 883.122 420.86 872.157 420.86Z" class="black" />
    <path d="M642.519 420.016C633.662 420.016 626.914 417.908 622.275 413.268C617.636 408.629 615.527 401.881 615.527 393.025V233.605C615.527 224.748 617.636 218.422 622.275 213.782C626.914 209.143 633.241 207.035 641.254 207.035C649.267 207.035 655.593 209.143 660.232 213.782C664.871 218.422 666.98 224.748 666.98 233.605V260.175H662.763C666.558 243.305 674.572 230.652 685.959 221.796C697.346 212.939 712.95 207.878 731.929 206.191C737.833 205.769 742.473 207.035 745.847 210.83C749.642 214.204 751.751 219.687 752.173 226.857C752.595 234.026 750.908 239.509 747.112 244.148C743.316 248.366 737.833 250.896 730.242 251.74L720.964 252.583C703.672 254.27 691.02 259.753 682.163 268.609C673.306 277.466 669.089 289.697 669.089 305.723V393.025C669.089 401.881 666.98 408.629 662.341 413.268C657.702 417.908 651.376 420.016 642.519 420.016Z" class="black" />
</svg>
