<svg width="512" height="512" viewBox="0 0 512 512" fill="none" xmlns="http://www.w3.org/2000/svg">
    <style>
        .logo { fill: #E63946;/* regimed-red-600 */ }
        @media (prefers-color-scheme: dark) {
        .logo { fill: #EE7C85; /* regimed-red-400 */ }
        }
    </style>
    <path class="logo" fill-rule="evenodd" clip-rule="evenodd"
          d="M248.909 490.013C245.841 491.737 242.044 491.554 239.161 489.544C233.786 485.817 227.208 481.25 227.208 481.25C220.105 475.915 213.258 470.587 206.637 465.306C205.017 464.011 204.32 461.864 204.897 459.871C208.848 446.11 212.737 429.657 215.474 411.151C220.588 376.612 220.948 341.481 214.93 304.683C214.828 304.103 215.066 303.518 215.526 303.172C216.015 302.83 216.64 302.788 217.174 303.065C232.114 310.894 249.146 311.653 266.585 302.986C267.129 302.716 267.781 302.788 268.227 303.17C268.702 303.556 268.917 304.178 268.735 304.761C260.353 335.177 256.01 364.993 254.364 394.699C252.278 432.513 255.16 464.224 257.381 481.566C257.653 483.643 256.65 485.684 254.815 486.708C253.095 487.665 251.03 488.835 248.909 490.013ZM179.384 436.909C179.108 437.972 178.326 438.825 177.27 439.156C176.243 439.49 175.084 439.253 174.247 438.534C-170.574 139.118 123.879 -86.392 242.181 84.2441C247.428 91.7121 257.881 93.8954 265.634 88.9428C455.078 -28.1558 633.735 196.007 366.09 412.493C354.275 422.185 341.615 431.578 327.815 441.233C316.142 449.446 305.142 456.584 292.566 464.564C292.222 464.767 291.733 465.084 291.159 465.444C290.183 466.06 288.962 466.125 287.922 465.615C286.883 465.107 286.193 464.097 286.073 462.95C284.791 448.428 283.778 430.218 284.356 408.914C285.65 360.598 294.912 322.751 296.8 314.47C315.422 232.214 352.362 173.878 372.456 149.501C375.04 146.385 375.388 144.507 375.458 142.374C375.554 140.316 374.407 138.01 373.013 136.7C371.62 135.39 369.085 134.463 367.127 134.513C365.169 134.566 362.962 135.768 361.236 137.013C359.395 138.347 358.257 140.04 355.997 142.51C324.36 177.203 303.376 218.376 299.722 225.524C296.804 231.277 294.029 236.999 291.424 242.691C268.535 291.541 215.099 286.995 198.991 242.376C198.911 242.133 198.802 241.899 198.721 241.676C198.506 241.049 198.291 240.421 198.076 239.791C180.343 189.7 162.988 164.338 153.051 151.467C151.197 149.04 148.732 147.42 146.644 146.864C144.64 146.33 142.102 147.047 140.549 148.139C138.997 149.232 137.695 150.544 137.243 153.418C136.919 155.528 137.614 157.757 138.456 159.717C139.76 162.692 141.126 163.931 145.042 171.263C174.693 227.02 183.165 285.282 183.293 286.024C188.753 317.892 189.065 346.051 189.066 353.365C189.049 383.916 185.575 411.3 179.384 436.909ZM290.453 155.602C293.193 151.701 287.487 147.532 284.147 151.625C282.202 153.923 279.973 156.314 277.635 158.406C275.298 160.498 272.96 162.59 270.436 164.078C268.717 164.966 266.605 165.654 264.778 166.24C260.662 167.915 255.21 169.678 255.564 174.911C256.026 177.427 258.236 179.057 260.357 179.375C262.764 179.596 264.755 179.286 267.096 178.529C269.179 177.857 271.21 176.95 272.176 176.883C273.197 176.891 273.469 177.477 273.656 178.082C274.029 179.355 274.708 182.415 274.384 184.522C273.844 189.043 271.21 193.244 268.254 196.537C266.83 198.334 265.012 199.926 263.167 201.52C261.555 202.714 259.738 204.306 257.705 205.293C220.115 223.473 203.526 164.01 242.04 153.881C249.111 151.93 256.547 153.2 262.754 157.878C265.858 160.216 271.283 159.827 272.419 156.754C277.627 142.54 249.268 134.837 238.464 137.66C179.698 149.326 180.382 236.554 248.655 236.555C283.259 236.555 307.928 190.992 284.214 167.354C283.213 166.354 283.158 164.732 284.114 163.685C286.403 161.158 288.414 158.38 290.453 155.602Z"/>
</svg>
